<?xml version="1.0" encoding="UTF-8"?>
<!-- Created with Inkscape (http://www.inkscape.org/) -->
<svg id="svg40267" width="110" height="65" version="1.1" viewBox="0 0 110 65" xmlns="http://www.w3.org/2000/svg" xmlns:cc="http://creativecommons.org/ns#" xmlns:dc="http://purl.org/dc/elements/1.1/" xmlns:rdf="http://www.w3.org/1999/02/22-rdf-syntax-ns#" xmlns:xlink="http://www.w3.org/1999/xlink">
 <defs id="defs40269">
  <clipPath id="clipPath4383-1-4-0-1-2-1-6-6-7-4-5-8">
   <path id="path4381-1-5-1-8-1-68-4-6-5-5-4-0" d="m0 504h504v-504h-504z"/>
  </clipPath>
  <linearGradient id="linearGradient11587-4-0" x2="1" gradientTransform="matrix(81.215,-81.215,81.215,81.215,334.56,308.25)" gradientUnits="userSpaceOnUse" xlink:href="#linearGradient21224-9-2-9-2"/>
  <linearGradient id="linearGradient21224-9-2-9-2" x2="1" gradientTransform="matrix(354.93,354.93,354.93,-354.93,113.15,70.235)" gradientUnits="userSpaceOnUse">
   <stop id="stop21216-2-4-9-6" style="stop-color:#ffffff;stop-opacity:.66834" offset="0"/>
   <stop id="stop21218-2-9-9-2" style="stop-color:#ffffff;stop-opacity:.733" offset=".6"/>
   <stop id="stop21220-8-99-9-2" style="stop-color:#ffffff;stop-opacity:.035176" offset=".86939"/>
   <stop id="stop21222-9-4-1-0" style="stop-color:#ffffff;stop-opacity:.19095" offset="1"/>
  </linearGradient>
  <clipPath id="clipPath4653-0-1-3-3-5-0-0-7-7-98-1-8">
   <path id="path4651-3-1-1-4-8-8-1-8-3-1-5-7" d="m45.938 413.3h430.14v-216.34h-430.14z"/>
  </clipPath>
  <clipPath id="clipPath4383-1-4-0-1-2-1-6-9-2-6-6-8-8">
   <path id="path4381-1-5-1-8-1-68-4-5-1-1-39-2-8" d="m0 504h504v-504h-504z"/>
  </clipPath>
  <clipPath id="clipPath4653-0-1-3-3-5-0-0-6-3-9-61-4-1">
   <path id="path4651-3-1-1-4-8-8-1-9-0-3-7-0-9" d="m45.938 413.3h430.14v-216.34h-430.14z"/>
  </clipPath>
 </defs>
 <metadata id="metadata40272">
  <rdf:RDF>
   <cc:Work rdf:about="">
    <dc:format>image/svg+xml</dc:format>
    <dc:type rdf:resource="http://purl.org/dc/dcmitype/StillImage"/>
    <dc:title/>
   </cc:Work>
  </rdf:RDF>
 </metadata>
 <g id="layer1" transform="translate(-247.31 24.814)">
  <g id="g19000" transform="matrix(3.7795 0 0 3.7795 -503.09 -1888.1)">
   <rect id="rect6767-6-3-4-3" x="198.54" y="492.99" width="17.198" height="17.198" style="opacity:0;paint-order:normal;stroke-width:.59302"/>
   <rect id="rect6767-6-3-4-1-2" x="215.74" y="492.99" width="11.906" height="11.906" style="opacity:0;paint-order:normal;stroke-width:.41055"/>
   <g id="g22356-3-9-4" transform="matrix(.17198 0 0 .17198 143.79 455.71)">
    <g id="g4379-8-5-2-9-1-6-6-3" transform="matrix(.22882 0 0 -.22882 308.67 324.33)" clip-path="url(#clipPath4383-1-4-0-1-2-1-6-6-7-4-5-8)">
     <g id="g4385-3-7-5-8-9-9-0-0" transform="translate(69.625,212.3)">
      <path id="path4387-9-3-1-1-5-3-6-1" d="m-.40195 1.4571c-2.806 12.672-3.9341 24.586-3.9341 37.64 0 47.745 18.807 92.852 52.963 127.02 34.158 34.157 79.28 52.965 127.03 52.965 47.769 0 92.875-18.808 127.02-52.965 10.041-10.033 18.169-19.911 25.564-31.817l-3.4315-2.1405c-7.252 11.668-15.087 21.397-24.874 31.184-33.44 33.424-77.573 51.824-124.27 51.824-46.716 0-90.85-18.4-124.27-51.824-33.407-33.416-51.817-77.542-51.817-124.25 0-12.67 1.0535-23.653 3.7155-35.8zm5.4479-5.7229c7.666-30.81 23.483-58.054 46.339-80.927.495-.477 1.0086-1.0442 1.0086-1.0442l-2.8804-2.5035-.88625.80779c-23.285 23.271-39.282 50.601-47.155 81.936zm53.417-87.701c32.561-29.726 73.493-45.041 117.2-45.041 46.701 0 90.834 18.409 124.27 51.815 33.408 33.44 51.817 77.575 51.817 124.29 0 23.678-4.0533 45.047-13.297 66.755l3.515 3.006c9.628-22.369 13.687-45.326 13.687-69.761 0-47.768-18.808-92.891-52.98-127.03-34.141-34.174-79.247-52.981-127.02-52.981-44.803 0-87.216 15.685-120.51 46.192z" style="fill:#ffffff;stroke-width:2.8407;stroke:#ffffff"/>
     </g>
     <g id="g4389-0-2-5-2-6-1-4-6" transform="translate(247.74,413.26)">
      <path id="path4391-0-2-7-6-2-5-3-7" d="m0 0c0-.797-.653-1.451-1.451-1.451-.797 0-1.45.654-1.45 1.451s.653 1.451 1.45 1.451c.798 0 1.451-.654 1.451-1.451" style="fill:#ffffff"/>
     </g>
     <g id="g4393-2-9-4-1-8-4-0-0" transform="translate(257.78,391.29)">
      <path id="path4395-9-2-8-6-7-9-5-6" d="m0 0c0-.981-.814-1.793-1.785-1.793-.989 0-1.785.812-1.785 1.793 0 .972.796 1.777 1.785 1.777.971 0 1.785-.805 1.785-1.777" style="fill:#ffffff"/>
     </g>
     <g id="g4397-7-3-3-7-6-9-4-9" transform="translate(283.87,355.35)">
      <path id="path4399-9-2-6-4-0-2-1-4" d="m0 0c0-.972-.796-1.769-1.768-1.769-.989 0-1.785.797-1.785 1.769 0 .988.796 1.801 1.785 1.801.972 0 1.768-.813 1.768-1.801" style="fill:#ffffff"/>
     </g>
     <g id="g4401-5-2-8-7-1-9-4-7" transform="translate(241.94,378.9)">
      <path id="path4403-3-2-8-4-7-1-5-4" d="m0 0c0-.797-.653-1.451-1.45-1.451s-1.451.654-1.451 1.451c0 .788.654 1.451 1.451 1.451s1.45-.663 1.45-1.451" style="fill:#ffffff"/>
     </g>
     <g id="g4405-2-4-7-6-1-7-85-7" transform="translate(257.56,370.64)">
      <path id="path4407-4-1-3-0-1-4-1-3" d="m0 0c0-.796-.653-1.45-1.45-1.45-.796 0-1.45.654-1.45 1.45 0 .797.654 1.451 1.45 1.451.797 0 1.45-.654 1.45-1.451" style="fill:#ffffff"/>
     </g>
     <g id="g4409-6-2-6-5-4-8-9-4" transform="translate(237.25,393.73)">
      <path id="path4411-7-2-5-7-1-3-9-0" d="m0 0c0-.973-.812-1.785-1.785-1.785-.988 0-1.785.812-1.785 1.785 0 .98.797 1.785 1.785 1.785.973 0 1.785-.805 1.785-1.785" style="fill:#ffffff"/>
     </g>
     <g id="g4413-3-0-0-4-9-3-6-6" transform="translate(213.6,379.34)">
      <path id="path4415-1-1-9-8-8-1-7-0" d="m0 0c0-.789-.655-1.442-1.451-1.442-.798 0-1.451.653-1.451 1.442 0 .796.653 1.459 1.451 1.459.796 0 1.451-.663 1.451-1.459" style="fill:#ffffff"/>
     </g>
     <g id="g4417-8-0-5-0-7-1-9-7" transform="translate(217.84,376.45)">
      <path id="path4419-1-9-6-5-2-3-0-1" d="m0 0c0-.797-.654-1.459-1.45-1.459-.798 0-1.451.662-1.451 1.459s.653 1.451 1.451 1.451c.796 0 1.45-.654 1.45-1.451" style="fill:#ffffff"/>
     </g>
     <g id="g4421-9-5-8-6-3-1-5-6" transform="translate(222.08,373.55)">
      <path id="path4423-6-4-5-8-3-8-9-0" d="m0 0c0-.804-.654-1.458-1.451-1.458s-1.45.654-1.45 1.458c0 .797.653 1.443 1.45 1.443s1.451-.646 1.451-1.443" style="fill:#ffffff"/>
     </g>
     <g id="g4425-7-4-0-8-6-4-7-8" transform="translate(215.61,367.98)">
      <path id="path4427-8-4-5-0-0-4-6-2" d="m0 0c0-.796-.653-1.466-1.45-1.466-.796 0-1.45.67-1.45 1.466 0 .782.654 1.435 1.45 1.435.797 0 1.45-.653 1.45-1.435" style="fill:#ffffff"/>
     </g>
     <g id="g4429-6-4-7-9-8-4-6-0" transform="translate(181.91,344.32)">
      <path id="path4431-1-4-8-0-3-8-8-2" d="m0 0c0-.796-.655-1.45-1.451-1.45-.797 0-1.45.654-1.45 1.45 0 .781.653 1.451 1.45 1.451.796 0 1.451-.67 1.451-1.451" style="fill:#ffffff"/>
     </g>
     <g id="g4433-5-5-9-7-5-1-18-3" transform="translate(188.16,336.74)">
      <path id="path4435-4-1-4-3-7-7-92-2" d="m0 0c0-.797-.653-1.451-1.45-1.451-.796 0-1.45.654-1.45 1.451s.654 1.451 1.45 1.451c.797 0 1.45-.654 1.45-1.451" style="fill:#ffffff"/>
     </g>
     <g id="g4437-5-2-9-6-3-1-9-7" transform="translate(183.25,214.25)">
      <path id="path4439-9-3-1-3-7-6-5-6" d="m0 0c0-.796-.653-1.466-1.45-1.466-.796 0-1.45.67-1.45 1.466 0 .782.654 1.435 1.45 1.435.797 0 1.45-.653 1.45-1.435" style="fill:#ffffff"/>
     </g>
     <g id="g4441-7-4-0-4-6-2-4-4" transform="translate(184.14,180.44)">
      <path id="path4443-8-4-8-1-8-6-6-3" d="m0 0c0-.987-.796-1.785-1.784-1.785-.973 0-1.785.798-1.785 1.785 0 .973.812 1.785 1.785 1.785.988 0 1.784-.812 1.784-1.785" style="fill:#ffffff"/>
     </g>
     <g id="g4445-7-4-6-3-6-6-2-1" transform="translate(164.95,163.15)">
      <path id="path4447-6-5-8-3-6-3-7-1" d="m0 0c0-.796-.653-1.45-1.434-1.45-.813 0-1.467.654-1.467 1.45 0 .798.654 1.451 1.467 1.451.781 0 1.434-.653 1.434-1.451" style="fill:#ffffff"/>
     </g>
     <g id="g4449-7-4-0-9-7-4-6-2" transform="translate(141.99,156.12)">
      <path id="path4451-8-9-4-2-8-8-7-9" d="m0 0c0-.971-.812-1.785-1.785-1.785-.988 0-1.786.814-1.786 1.785 0 .989.798 1.785 1.786 1.785.973 0 1.785-.796 1.785-1.785" style="fill:#ffffff"/>
     </g>
     <g id="g4453-2-2-7-7-0-3-1-7" transform="translate(137.3,171.74)">
      <path id="path4455-4-3-7-0-1-2-7-2" d="m0 0c0-.989-.814-1.785-1.785-1.785-.989 0-1.785.796-1.785 1.785 0 .971.796 1.784 1.785 1.784.971 0 1.785-.813 1.785-1.784" style="fill:#ffffff"/>
     </g>
     <g id="g4457-0-6-9-2-9-3-1-1" transform="translate(134.62,161.81)">
      <path id="path4459-1-2-5-0-9-4-86-4" d="m0 0c0-.796-.653-1.45-1.451-1.45-.797 0-1.451.654-1.451 1.45 0 .798.654 1.451 1.451 1.451.798 0 1.451-.653 1.451-1.451" style="fill:#ffffff"/>
     </g>
     <g id="g4461-7-6-7-6-5-4-8-3" transform="translate(117.44,170.06)">
      <path id="path4463-5-0-4-6-8-4-0-2" d="m0 0c0-.796-.654-1.45-1.45-1.45-.798 0-1.451.654-1.451 1.45 0 .798.653 1.451 1.451 1.451.796 0 1.45-.653 1.45-1.451" style="fill:#ffffff"/>
     </g>
     <g id="g4465-0-4-9-1-6-8-7-6" transform="translate(177.45,142.17)">
      <path id="path4467-6-7-9-6-7-4-8-7" d="m0 0c0-.796-.653-1.45-1.451-1.45-.797 0-1.45.654-1.45 1.45 0 .798.653 1.451 1.45 1.451.798 0 1.451-.653 1.451-1.451" style="fill:#ffffff"/>
     </g>
     <g id="g4469-5-7-5-4-1-8-6-0" transform="translate(195.52,155.45)">
      <path id="path4471-9-1-9-9-7-8-6-5" d="m0 0c0-.987-.796-1.785-1.785-1.785-.973 0-1.786.798-1.786 1.785 0 .989.813 1.785 1.786 1.785.989 0 1.785-.796 1.785-1.785" style="fill:#ffffff"/>
     </g>
     <g id="g4473-4-8-0-3-5-4-96-9" transform="translate(197.53,138.38)">
      <path id="path4475-8-0-6-7-7-3-1-1" d="m0 0c0-.796-.654-1.45-1.45-1.45-.798 0-1.451.654-1.451 1.45 0 .798.653 1.451 1.451 1.451.796 0 1.45-.653 1.45-1.451" style="fill:#ffffff"/>
     </g>
     <g id="g4477-8-2-9-5-1-3-8-1" transform="translate(271.84,154.67)">
      <path id="path4479-8-4-4-1-1-7-59-7" d="m0 0c0-.798-.67-1.451-1.45-1.451-.798 0-1.451.653-1.451 1.451 0 .796.653 1.45 1.451 1.45.78 0 1.45-.654 1.45-1.45" style="fill:#ffffff"/>
     </g>
     <g id="g4481-8-4-8-8-0-3-6-6" transform="translate(237.25,142.4)">
      <path id="path4483-4-0-4-2-7-8-6-6" d="m0 0c0-.796-.653-1.45-1.45-1.45-.796 0-1.449.654-1.449 1.45 0 .798.653 1.451 1.449 1.451.797 0 1.45-.653 1.45-1.451" style="fill:#ffffff"/>
     </g>
     <g id="g4485-7-3-3-3-9-9-1-5" transform="translate(330.29,124.77)">
      <path id="path4487-6-6-3-4-9-4-7-5" d="m0 0c0-.796-.653-1.45-1.451-1.45-.797 0-1.45.654-1.45 1.45s.653 1.45 1.45 1.45c.798 0 1.451-.654 1.451-1.45" style="fill:#ffffff"/>
     </g>
     <g id="g4489-5-9-3-0-8-7-5-2" transform="translate(337.87,193.38)">
      <path id="path4491-4-7-7-4-0-4-5-1" d="m0 0c0-.989-.796-1.785-1.785-1.785-.972 0-1.785.796-1.785 1.785 0 .971.813 1.785 1.785 1.785.989 0 1.785-.814 1.785-1.785" style="fill:#ffffff"/>
     </g>
     <g id="g4493-8-8-6-0-0-3-6-6" transform="translate(323.59,183.68)">
      <path id="path4495-2-5-1-6-6-0-3-8" d="m0 0c0-.798-.654-1.451-1.451-1.451-.796 0-1.45.653-1.45 1.451 0 .796.654 1.45 1.45 1.45.797 0 1.451-.654 1.451-1.45" style="fill:#ffffff"/>
     </g>
     <g id="g4497-1-9-0-5-7-2-0-6" transform="translate(337.65,180.89)">
      <path id="path4499-5-1-7-1-6-9-2-8" d="m0 0c0-.971-.814-1.785-1.785-1.785-.973 0-1.785.814-1.785 1.785 0 .973.812 1.785 1.785 1.785.971 0 1.785-.812 1.785-1.785" style="fill:#ffffff"/>
     </g>
     <g id="g4501-1-0-1-9-5-8-5-1" transform="translate(323.59,163.59)">
      <path id="path4503-5-3-6-1-5-9-9-7" d="m0 0c0-.796-.654-1.45-1.451-1.45-.796 0-1.45.654-1.45 1.45 0 .798.654 1.451 1.45 1.451.797 0 1.451-.653 1.451-1.451" style="fill:#ffffff"/>
     </g>
     <g id="g4505-0-9-8-3-4-9-8-5" transform="translate(359.96,203.09)">
      <path id="path4507-9-9-3-1-0-3-2-1" d="m0 0c0-.796-.653-1.451-1.45-1.451-.796 0-1.45.655-1.45 1.451s.654 1.45 1.45 1.45c.797 0 1.45-.654 1.45-1.45" style="fill:#ffffff"/>
     </g>
     <g id="g4509-6-0-2-6-3-9-3-0" transform="translate(363.53,194.28)">
      <path id="path4511-3-2-8-4-4-0-86-2" d="m0 0c0-.989-.812-1.785-1.785-1.785-.988 0-1.785.796-1.785 1.785 0 .971.797 1.785 1.785 1.785.973 0 1.785-.814 1.785-1.785" style="fill:#ffffff"/>
     </g>
     <g id="g4513-0-4-4-9-2-3-1-7" transform="translate(388.53,183.79)">
      <path id="path4515-9-3-3-7-9-7-66-4" d="m0 0c0-.971-.814-1.785-1.785-1.785-.989 0-1.786.814-1.786 1.785 0 .973.797 1.769 1.786 1.769.971 0 1.785-.796 1.785-1.769" style="fill:#ffffff"/>
     </g>
     <g id="g4517-7-3-2-8-7-7-13-5" transform="translate(363.09,165.16)">
      <path id="path4519-7-1-3-3-4-5-4-0" d="m0 0c0-.796-.654-1.45-1.45-1.45s-1.45.654-1.45 1.45c0 .798.654 1.451 1.45 1.451s1.45-.653 1.45-1.451" style="fill:#ffffff"/>
     </g>
     <g id="g4521-0-5-2-1-6-5-0-7" transform="translate(379.15,180.33)">
      <path id="path4523-4-8-3-6-9-6-9-8" d="m0 0c0-.798-.654-1.451-1.451-1.451s-1.45.653-1.45 1.451c0 .796.653 1.45 1.45 1.45s1.451-.654 1.451-1.45" style="fill:#ffffff"/>
     </g>
     <g id="g4525-4-1-3-1-5-4-6-9" transform="translate(376.25,156.9)">
      <path id="path4527-2-9-1-4-8-1-8-1" d="m0 0c0-.798-.653-1.451-1.451-1.451-.797 0-1.45.653-1.45 1.451 0 .796.653 1.45 1.45 1.45.798 0 1.451-.654 1.451-1.45" style="fill:#ffffff"/>
     </g>
     <g id="g4529-9-2-1-4-6-8-2-6" transform="translate(279,395.41)">
      <path id="path4531-2-8-5-8-9-2-6-1" d="m0 0c.238.909.971 1.618 1.896 1.825l.51 3.817.749-3.857c.892-.254 1.578-.98 1.785-1.897l3.874-.549-3.906-.686c-.254-.884-.956-1.569-1.848-1.792l-.654-3.93-.669 3.962c-.861.246-1.546.956-1.753 1.84l-3.731.606z" style="fill:#ffffff"/>
     </g>
     <g id="g4533-4-3-8-7-4-1-4-3" transform="translate(178.96,121.72)">
      <path id="path4535-8-8-9-6-4-5-2-0" d="m0 0c.239.909.973 1.609 1.898 1.816l.509 3.826.749-3.857c.893-.255 1.577-.989 1.786-1.897l3.856-.557-3.888-.686c-.256-.876-.957-1.562-1.85-1.785l-.653-3.921-.67 3.953c-.876.255-1.546.957-1.769 1.832l-3.73.607z" style="fill:#ffffff"/>
     </g>
     <g id="g4537-1-5-3-1-8-8-3-4" transform="translate(362.93,157.01)">
      <path id="path4539-2-1-5-7-5-5-0-4" d="m0 0c.239.909.973 1.61 1.898 1.817l.493 3.826.765-3.858c.893-.255 1.578-.987 1.786-1.912l3.872-.543-3.905-.685c-.255-.877-.956-1.562-1.849-1.785l-.669-3.921-.654 3.953c-.876.255-1.546.957-1.769 1.833l-3.713.605z" style="fill:#ffffff"/>
     </g>
     <g id="g4541-1-6-1-1-7-8-5-7" transform="translate(377.48,196.36)">
      <path id="path4543-0-7-1-2-1-4-0-3" d="m0 0c.239.909.989 1.61 1.897 1.817l.509 3.826.75-3.858c.893-.255 1.594-.987 1.801-1.912l3.858-.542-3.906-.686c-.239-.877-.956-1.562-1.832-1.784l-.671-3.938-.653 3.969c-.877.239-1.546.941-1.768 1.833l-3.73.606z" style="fill:#ffffff"/>
     </g>
     <g id="g4545-1-3-9-6-6-1-7-4" transform="translate(196.8,341.71)">
      <path id="path4547-2-4-0-0-2-7-2-5" d="m0 0c.255.909.989 1.626 1.914 1.833l.509 3.809.749-3.857c.893-.255 1.578-.988 1.785-1.897l3.857-.541-3.888-.702c-.256-.877-.957-1.562-1.85-1.785l-.653-3.921-.668 3.953c-.878.255-1.546.957-1.771 1.849l-3.729.606z" style="fill:#ffffff"/>
     </g>
     <g id="g4549-2-0-0-3-6-6-80-8" transform="translate(225.74,203.23)">
      <path id="path4551-2-3-9-0-7-1-23-7" d="m0 0c-9.706 12.543-21.23 25.597-32.085 41.743l-3.728-.907c.397-.623.797-1.26 1.195-1.882 10.089-15.603 20.13-28.705 30.506-41.218 0 0 .095-.159.24-.382z" style="fill:#ffffff"/>
     </g>
     <g id="g4553-1-2-7-0-8-9-5-3" transform="translate(226.16,194.13)">
      <path id="path4555-6-8-9-9-3-9-4-9" d="m0 0c6.536-9.339 18.506-24.401 24.483-19.046 6.439 5.753-8.305 11.794-19.557 22.331z" style="fill:#ffffff"/>
     </g>
     <g id="g4557-6-5-2-9-6-3-3-3" transform="translate(248.6,218.39)">
      <path id="path4559-7-1-3-6-2-5-0-9" d="m0 0h-34.093l7.619 7.634-2.71 7.013h-22.872l-2.343-8.016 5.452-6.631h-21.63l7.62 7.634 14.663 50.828-6.615 6.647h31.831l22.823-57.475 4.718-4.733zm-33.233 24.705-9.212 23.334-6.759-23.334z" style="fill:#ffffff"/>
     </g>
     <g id="g4561-0-3-7-7-6-4-7-0" transform="translate(344.17,281.27)">
      <path id="path4563-7-3-7-8-5-8-1-9" d="m0 0-2.614 2.231h5.849zm17.278 2.231h13.148l22.825-57.475 7.603-7.634h-41.441l7.603 7.634-2.694 7.013h-22.871l-2.36-8.016 5.467-6.631h-21.629l7.62 7.634 13.994 48.533zm2.995-40.404-9.212 23.334-6.757-23.334z" style="fill:#ffffff"/>
     </g>
     <g id="g4565-6-7-0-5-9-1-8-0" transform="translate(150.51,242.95)">
      <path id="path4567-2-1-4-8-1-2-8-6" d="m0 0v33.901l-6.614 6.646h22.01l-6.598-6.646v-50.829l7.603-7.634h-28.93l-24.912 42.158v-34.524l6.408-7.634h-23.016l7.604 7.634v50.829l-6.6 6.646h28.817z" style="fill:#ffffff"/>
     </g>
     <g id="g4569-8-1-5-3-7-5-7-8" transform="translate(270.15,232.45)">
      <path id="path4571-5-9-2-4-3-4-42-5" d="m0 0c-1.164.893-2.231 1.881-3.204 3.028l.319-4.924z" style="fill:#ffffff"/>
     </g>
     <g id="g4573-6-4-2-3-9-7-2-4" transform="translate(294.61,238.63)">
      <path id="path4575-8-7-6-6-7-8-1-4" d="m0 0c4.59-1.785 7.889-3.602 7.81-6.789-.096-3.555-5.993-6.106-10.584-5.961-2.389.078-7.841.43-13.42 2.31l-10.567-6.806.446-7.219 7.587 5.562c9.229-3.252 20.417-4.622 30.761-1.26 10.281 3.364 21.103 11.954 15.094 27.001-1.148 2.901-3.235 5.307-5.529 7.221z" style="fill:#ffffff"/>
     </g>
     <g id="g4577-4-2-3-2-2-7-2-6" transform="translate(308.51,257.38)">
      <path id="path4579-3-7-0-3-9-4-1-8" d="m0 0c-.239.095-.478.207-.701.303-3.889 1.578-15.732 6.248-19.046 7.969-3.858 2.008-3.428 8.4 5.865 9.707 8.431 1.163 20.098-5.579 22.601-8.559l-.685 20.273-6.822-4.717c-9.612 3.362-20.8 3.236-28.643-.479-7.315-3.458-15.189-10.759-14.232-21.134.956-10.36 9.005-14.377 16.257-17.66.669-.318 1.403-.622 2.089-.893l11.698 7.571z" style="fill:#ffffff"/>
     </g>
    </g>
    <path id="path4633-3-4-4-1-1-4-7-8" d="m330.44 301.76-.0801 1.4004c32.04-30.526 78.555-45.767 87.242-73.405-14.424 28.425-57.956 42.197-87.162 72.005" style="fill:url(#linearGradient11587-4-0)"/>
    <path id="path4645-3-4-1-9-2-4-2-8" d="m350.22 265.36c-.33911-.5872-.68188-1.189-1.0286-1.8052-7.7865-14.009-6.6632-28.304 7.4293-22.076 11.959 5.2885 23.381 20.117 27.977 30.647 2.1299 4.8798 7.8376 24.031-10.544 16.273l-.0364-.113c17.36 7.1483 14.359-10.967 5.0697-24.852-5.2592-7.8593-12.116-14.402-16.442-17.564-14.399-10.514-23.177-4.0846-13.071 16.544.4597.9336.93358 1.8235 1.4223 2.677z" style="fill:#ffffff;stroke-width:.45;stroke:#ffffff"/>
    <rect id="rect15780-6-7-1-5-6-0" x="319.18" y="217.59" width="98.424" height="98.424" style="opacity:0;paint-order:fill markers stroke;stroke-width:1.5758"/>
    <g id="g4661-7-9-5-1-7-4-3-9" transform="matrix(.22882 0 0 -.22882 308.67 324.33)">
     <g id="g4659-9-0-7-2-5-3-6-6" clip-path="url(#clipPath4653-0-1-3-3-5-0-0-7-7-98-1-8)" style="opacity:.7">
      <g id="g4657-4-9-0-1-2-5-0-6" transform="translate(344.29,291.88)">
       <path id="path4655-1-0-1-1-6-0-88-3" d="m0 0c54.4 24.896 102.31 61.396 131.78 121.42-28.498-40.898-78.036-72.185-135.41-97.672-9.435-4.175-19.095-8.208-28.898-12.097-91.359-36.277-202.26-63.212-265.83-104.96l4.576-1.608c69.7 42.428 192.92 48.755 293.78 94.914" style="fill:#ffffff"/>
      </g>
     </g>
    </g>
   </g>
   <g id="g22356-3-7-7-5" transform="matrix(.11906 0 0 .11906 177.83 467.18)">
    <g id="g4379-8-5-2-9-1-6-0-0-6" transform="matrix(.22882 0 0 -.22882 308.67 324.33)" clip-path="url(#clipPath4383-1-4-0-1-2-1-6-9-2-6-6-8-8)">
     <g id="g4385-3-7-5-8-9-9-3-8-2" transform="translate(69.625,212.3)">
      <path id="path4387-9-3-1-1-5-3-9-9-8" d="m-.40195 1.4571c-2.806 12.672-3.9341 24.586-3.9341 37.64 0 47.745 18.807 92.852 52.963 127.02 34.158 34.157 79.28 52.965 127.03 52.965 47.769 0 92.875-18.808 127.02-52.965 10.041-10.033 18.169-19.911 25.564-31.817l-3.4315-2.1405c-7.252 11.668-15.087 21.397-24.874 31.184-33.44 33.424-77.573 51.824-124.27 51.824-46.716 0-90.85-18.4-124.27-51.824-33.407-33.416-51.817-77.542-51.817-124.25 0-12.67 1.0535-23.653 3.7155-35.8zm5.4479-5.7229c7.666-30.81 23.483-58.054 46.339-80.927.495-.477 1.0086-1.0442 1.0086-1.0442l-2.8804-2.5035-.88625.80779c-23.285 23.271-39.282 50.601-47.155 81.936zm53.417-87.701c32.561-29.726 73.493-45.041 117.2-45.041 46.701 0 90.834 18.409 124.27 51.815 33.408 33.44 51.817 77.575 51.817 124.29 0 23.678-4.0533 45.047-13.297 66.755l3.515 3.006c9.628-22.369 13.687-45.326 13.687-69.761 0-47.768-18.808-92.891-52.98-127.03-34.141-34.174-79.247-52.981-127.02-52.981-44.803 0-87.216 15.685-120.51 46.192z" style="fill:#ffffff;stroke-width:5.7493;stroke:#ffffff"/>
     </g>
     <g id="g4389-0-2-5-2-6-1-3-9-1" transform="translate(247.74,413.26)">
      <path id="path4391-0-2-7-6-2-5-1-8-5" d="m0 0c0-.797-.653-1.451-1.451-1.451-.797 0-1.45.654-1.45 1.451s.653 1.451 1.45 1.451c.798 0 1.451-.654 1.451-1.451" style="fill:#ffffff"/>
     </g>
     <g id="g4393-2-9-4-1-8-4-9-4-9" transform="translate(257.78,391.29)">
      <path id="path4395-9-2-8-6-7-9-2-26-8" d="m0 0c0-.981-.814-1.793-1.785-1.793-.989 0-1.785.812-1.785 1.793 0 .972.796 1.777 1.785 1.777.971 0 1.785-.805 1.785-1.777" style="fill:#ffffff"/>
     </g>
     <g id="g4397-7-3-3-7-6-9-0-8-3" transform="translate(283.87,355.35)">
      <path id="path4399-9-2-6-4-0-2-3-7-2" d="m0 0c0-.972-.796-1.769-1.768-1.769-.989 0-1.785.797-1.785 1.769 0 .988.796 1.801 1.785 1.801.972 0 1.768-.813 1.768-1.801" style="fill:#ffffff"/>
     </g>
     <g id="g4401-5-2-8-7-1-9-9-8-9" transform="translate(241.94,378.9)">
      <path id="path4403-3-2-8-4-7-1-4-5-1" d="m0 0c0-.797-.653-1.451-1.45-1.451s-1.451.654-1.451 1.451c0 .788.654 1.451 1.451 1.451s1.45-.663 1.45-1.451" style="fill:#ffffff"/>
     </g>
     <g id="g4405-2-4-7-6-1-7-8-9-0" transform="translate(257.56,370.64)">
      <path id="path4407-4-1-3-0-1-4-9-8-4" d="m0 0c0-.796-.653-1.45-1.45-1.45-.796 0-1.45.654-1.45 1.45 0 .797.654 1.451 1.45 1.451.797 0 1.45-.654 1.45-1.451" style="fill:#ffffff"/>
     </g>
     <g id="g4409-6-2-6-5-4-8-7-3-5" transform="translate(237.25,393.73)">
      <path id="path4411-7-2-5-7-1-3-4-6-0" d="m0 0c0-.973-.812-1.785-1.785-1.785-.988 0-1.785.812-1.785 1.785 0 .98.797 1.785 1.785 1.785.973 0 1.785-.805 1.785-1.785" style="fill:#ffffff"/>
     </g>
     <g id="g4413-3-0-0-4-9-3-5-4-1" transform="translate(213.6,379.34)">
      <path id="path4415-1-1-9-8-8-1-6-7-0" d="m0 0c0-.789-.655-1.442-1.451-1.442-.798 0-1.451.653-1.451 1.442 0 .796.653 1.459 1.451 1.459.796 0 1.451-.663 1.451-1.459" style="fill:#ffffff"/>
     </g>
     <g id="g4417-8-0-5-0-7-1-5-1-6" transform="translate(217.84,376.45)">
      <path id="path4419-1-9-6-5-2-3-5-5-4" d="m0 0c0-.797-.654-1.459-1.45-1.459-.798 0-1.451.662-1.451 1.459s.653 1.451 1.451 1.451c.796 0 1.45-.654 1.45-1.451" style="fill:#ffffff"/>
     </g>
     <g id="g4421-9-5-8-6-3-1-2-9-6" transform="translate(222.08,373.55)">
      <path id="path4423-6-4-5-8-3-8-5-4-7" d="m0 0c0-.804-.654-1.458-1.451-1.458s-1.45.654-1.45 1.458c0 .797.653 1.443 1.45 1.443s1.451-.646 1.451-1.443" style="fill:#ffffff"/>
     </g>
     <g id="g4425-7-4-0-8-6-4-2-4-9" transform="translate(215.61,367.98)">
      <path id="path4427-8-4-5-0-0-4-8-2-3" d="m0 0c0-.796-.653-1.466-1.45-1.466-.796 0-1.45.67-1.45 1.466 0 .782.654 1.435 1.45 1.435.797 0 1.45-.653 1.45-1.435" style="fill:#ffffff"/>
     </g>
     <g id="g4429-6-4-7-9-8-4-5-0-6" transform="translate(181.91,344.32)">
      <path id="path4431-1-4-8-0-3-8-2-0-7" d="m0 0c0-.796-.655-1.45-1.451-1.45-.797 0-1.45.654-1.45 1.45 0 .781.653 1.451 1.45 1.451.796 0 1.451-.67 1.451-1.451" style="fill:#ffffff"/>
     </g>
     <g id="g4433-5-5-9-7-5-1-1-0-9" transform="translate(188.16,336.74)">
      <path id="path4435-4-1-4-3-7-7-9-0-4" d="m0 0c0-.797-.653-1.451-1.45-1.451-.796 0-1.45.654-1.45 1.451s.654 1.451 1.45 1.451c.797 0 1.45-.654 1.45-1.451" style="fill:#ffffff"/>
     </g>
     <g id="g4437-5-2-9-6-3-1-6-8-1" transform="translate(183.25,214.25)">
      <path id="path4439-9-3-1-3-7-6-2-1-5" d="m0 0c0-.796-.653-1.466-1.45-1.466-.796 0-1.45.67-1.45 1.466 0 .782.654 1.435 1.45 1.435.797 0 1.45-.653 1.45-1.435" style="fill:#ffffff"/>
     </g>
     <g id="g4441-7-4-0-4-6-2-6-7-4" transform="translate(184.14,180.44)">
      <path id="path4443-8-4-8-1-8-6-8-1-2" d="m0 0c0-.987-.796-1.785-1.784-1.785-.973 0-1.785.798-1.785 1.785 0 .973.812 1.785 1.785 1.785.988 0 1.784-.812 1.784-1.785" style="fill:#ffffff"/>
     </g>
     <g id="g4445-7-4-6-3-6-6-3-9-3" transform="translate(164.95,163.15)">
      <path id="path4447-6-5-8-3-6-3-3-9-2" d="m0 0c0-.796-.653-1.45-1.434-1.45-.813 0-1.467.654-1.467 1.45 0 .798.654 1.451 1.467 1.451.781 0 1.434-.653 1.434-1.451" style="fill:#ffffff"/>
     </g>
     <g id="g4449-7-4-0-9-7-4-9-0-4" transform="translate(141.99,156.12)">
      <path id="path4451-8-9-4-2-8-8-0-93-7" d="m0 0c0-.971-.812-1.785-1.785-1.785-.988 0-1.786.814-1.786 1.785 0 .989.798 1.785 1.786 1.785.973 0 1.785-.796 1.785-1.785" style="fill:#ffffff"/>
     </g>
     <g id="g4453-2-2-7-7-0-3-2-47-9" transform="translate(137.3,171.74)">
      <path id="path4455-4-3-7-0-1-2-0-3-6" d="m0 0c0-.989-.814-1.785-1.785-1.785-.989 0-1.785.796-1.785 1.785 0 .971.796 1.784 1.785 1.784.971 0 1.785-.813 1.785-1.784" style="fill:#ffffff"/>
     </g>
     <g id="g4457-0-6-9-2-9-3-3-17-5" transform="translate(134.62,161.81)">
      <path id="path4459-1-2-5-0-9-4-8-8-6" d="m0 0c0-.796-.653-1.45-1.451-1.45-.797 0-1.451.654-1.451 1.45 0 .798.654 1.451 1.451 1.451.798 0 1.451-.653 1.451-1.451" style="fill:#ffffff"/>
     </g>
     <g id="g4461-7-6-7-6-5-4-5-2-8" transform="translate(117.44,170.06)">
      <path id="path4463-5-0-4-6-8-4-7-5-4" d="m0 0c0-.796-.654-1.45-1.45-1.45-.798 0-1.451.654-1.451 1.45 0 .798.653 1.451 1.451 1.451.796 0 1.45-.653 1.45-1.451" style="fill:#ffffff"/>
     </g>
     <g id="g4465-0-4-9-1-6-8-8-3-3" transform="translate(177.45,142.17)">
      <path id="path4467-6-7-9-6-7-4-0-1-4" d="m0 0c0-.796-.653-1.45-1.451-1.45-.797 0-1.45.654-1.45 1.45 0 .798.653 1.451 1.45 1.451.798 0 1.451-.653 1.451-1.451" style="fill:#ffffff"/>
     </g>
     <g id="g4469-5-7-5-4-1-8-0-2-8" transform="translate(195.52,155.45)">
      <path id="path4471-9-1-9-9-7-8-0-1-6" d="m0 0c0-.987-.796-1.785-1.785-1.785-.973 0-1.786.798-1.786 1.785 0 .989.813 1.785 1.786 1.785.989 0 1.785-.796 1.785-1.785" style="fill:#ffffff"/>
     </g>
     <g id="g4473-4-8-0-3-5-4-9-2-4" transform="translate(197.53,138.38)">
      <path id="path4475-8-0-6-7-7-3-2-9-4" d="m0 0c0-.796-.654-1.45-1.45-1.45-.798 0-1.451.654-1.451 1.45 0 .798.653 1.451 1.451 1.451.796 0 1.45-.653 1.45-1.451" style="fill:#ffffff"/>
     </g>
     <g id="g4477-8-2-9-5-1-3-5-2-0" transform="translate(271.84,154.67)">
      <path id="path4479-8-4-4-1-1-7-5-64-6" d="m0 0c0-.798-.67-1.451-1.45-1.451-.798 0-1.451.653-1.451 1.451 0 .796.653 1.45 1.451 1.45.78 0 1.45-.654 1.45-1.45" style="fill:#ffffff"/>
     </g>
     <g id="g4481-8-4-8-8-0-3-3-6-8" transform="translate(237.25,142.4)">
      <path id="path4483-4-0-4-2-7-8-9-9-7" d="m0 0c0-.796-.653-1.45-1.45-1.45-.796 0-1.449.654-1.449 1.45 0 .798.653 1.451 1.449 1.451.797 0 1.45-.653 1.45-1.451" style="fill:#ffffff"/>
     </g>
     <g id="g4485-7-3-3-3-9-9-5-6-9" transform="translate(330.29,124.77)">
      <path id="path4487-6-6-3-4-9-4-6-9-2" d="m0 0c0-.796-.653-1.45-1.451-1.45-.797 0-1.45.654-1.45 1.45s.653 1.45 1.45 1.45c.798 0 1.451-.654 1.451-1.45" style="fill:#ffffff"/>
     </g>
     <g id="g4489-5-9-3-0-8-7-3-9-1" transform="translate(337.87,193.38)">
      <path id="path4491-4-7-7-4-0-4-1-4-5" d="m0 0c0-.989-.796-1.785-1.785-1.785-.972 0-1.785.796-1.785 1.785 0 .971.813 1.785 1.785 1.785.989 0 1.785-.814 1.785-1.785" style="fill:#ffffff"/>
     </g>
     <g id="g4493-8-8-6-0-0-3-5-0-0" transform="translate(323.59,183.68)">
      <path id="path4495-2-5-1-6-6-0-1-95-8" d="m0 0c0-.798-.654-1.451-1.451-1.451-.796 0-1.45.653-1.45 1.451 0 .796.654 1.45 1.45 1.45.797 0 1.451-.654 1.451-1.45" style="fill:#ffffff"/>
     </g>
     <g id="g4497-1-9-0-5-7-2-9-1-6" transform="translate(337.65,180.89)">
      <path id="path4499-5-1-7-1-6-9-3-0-5" d="m0 0c0-.971-.814-1.785-1.785-1.785-.973 0-1.785.814-1.785 1.785 0 .973.812 1.785 1.785 1.785.971 0 1.785-.812 1.785-1.785" style="fill:#ffffff"/>
     </g>
     <g id="g4501-1-0-1-9-5-8-3-7-4" transform="translate(323.59,163.59)">
      <path id="path4503-5-3-6-1-5-9-0-2-4" d="m0 0c0-.796-.654-1.45-1.451-1.45-.796 0-1.45.654-1.45 1.45 0 .798.654 1.451 1.45 1.451.797 0 1.451-.653 1.451-1.451" style="fill:#ffffff"/>
     </g>
     <g id="g4505-0-9-8-3-4-9-0-3-9" transform="translate(359.96,203.09)">
      <path id="path4507-9-9-3-1-0-3-6-32-3" d="m0 0c0-.796-.653-1.451-1.45-1.451-.796 0-1.45.655-1.45 1.451s.654 1.45 1.45 1.45c.797 0 1.45-.654 1.45-1.45" style="fill:#ffffff"/>
     </g>
     <g id="g4509-6-0-2-6-3-9-0-8-3" transform="translate(363.53,194.28)">
      <path id="path4511-3-2-8-4-4-0-8-7-8" d="m0 0c0-.989-.812-1.785-1.785-1.785-.988 0-1.785.796-1.785 1.785 0 .971.797 1.785 1.785 1.785.973 0 1.785-.814 1.785-1.785" style="fill:#ffffff"/>
     </g>
     <g id="g4513-0-4-4-9-2-3-2-1-3" transform="translate(388.53,183.79)">
      <path id="path4515-9-3-3-7-9-7-6-6-6" d="m0 0c0-.971-.814-1.785-1.785-1.785-.989 0-1.786.814-1.786 1.785 0 .973.797 1.769 1.786 1.769.971 0 1.785-.796 1.785-1.769" style="fill:#ffffff"/>
     </g>
     <g id="g4517-7-3-2-8-7-7-1-1-5" transform="translate(363.09,165.16)">
      <path id="path4519-7-1-3-3-4-5-7-9-3" d="m0 0c0-.796-.654-1.45-1.45-1.45s-1.45.654-1.45 1.45c0 .798.654 1.451 1.45 1.451s1.45-.653 1.45-1.451" style="fill:#ffffff"/>
     </g>
     <g id="g4521-0-5-2-1-6-5-9-1-4" transform="translate(379.15,180.33)">
      <path id="path4523-4-8-3-6-9-6-1-2-7" d="m0 0c0-.798-.654-1.451-1.451-1.451s-1.45.653-1.45 1.451c0 .796.653 1.45 1.45 1.45s1.451-.654 1.451-1.45" style="fill:#ffffff"/>
     </g>
     <g id="g4525-4-1-3-1-5-4-9-14-1" transform="translate(376.25,156.9)">
      <path id="path4527-2-9-1-4-8-1-2-6-7" d="m0 0c0-.798-.653-1.451-1.451-1.451-.797 0-1.45.653-1.45 1.451 0 .796.653 1.45 1.45 1.45.798 0 1.451-.654 1.451-1.45" style="fill:#ffffff"/>
     </g>
     <g id="g4529-9-2-1-4-6-8-3-0-1" transform="translate(279,395.41)">
      <path id="path4531-2-8-5-8-9-2-7-7-6" d="m0 0c.238.909.971 1.618 1.896 1.825l.51 3.817.749-3.857c.892-.254 1.578-.98 1.785-1.897l3.874-.549-3.906-.686c-.254-.884-.956-1.569-1.848-1.792l-.654-3.93-.669 3.962c-.861.246-1.546.956-1.753 1.84l-3.731.606z" style="fill:#ffffff"/>
     </g>
     <g id="g4533-4-3-8-7-4-1-1-3-2" transform="translate(178.96,121.72)">
      <path id="path4535-8-8-9-6-4-5-4-6-0" d="m0 0c.239.909.973 1.609 1.898 1.816l.509 3.826.749-3.857c.893-.255 1.577-.989 1.786-1.897l3.856-.557-3.888-.686c-.256-.876-.957-1.562-1.85-1.785l-.653-3.921-.67 3.953c-.876.255-1.546.957-1.769 1.832l-3.73.607z" style="fill:#ffffff"/>
     </g>
     <g id="g4537-1-5-3-1-8-8-5-5-0" transform="translate(362.93,157.01)">
      <path id="path4539-2-1-5-7-5-5-4-2-3" d="m0 0c.239.909.973 1.61 1.898 1.817l.493 3.826.765-3.858c.893-.255 1.578-.987 1.786-1.912l3.872-.543-3.905-.685c-.255-.877-.956-1.562-1.849-1.785l-.669-3.921-.654 3.953c-.876.255-1.546.957-1.769 1.833l-3.713.605z" style="fill:#ffffff"/>
     </g>
     <g id="g4541-1-6-1-1-7-8-3-2-0" transform="translate(377.48,196.36)">
      <path id="path4543-0-7-1-2-1-4-1-4-8" d="m0 0c.239.909.989 1.61 1.897 1.817l.509 3.826.75-3.858c.893-.255 1.594-.987 1.801-1.912l3.858-.542-3.906-.686c-.239-.877-.956-1.562-1.832-1.784l-.671-3.938-.653 3.969c-.877.239-1.546.941-1.768 1.833l-3.73.606z" style="fill:#ffffff"/>
     </g>
     <g id="g4545-1-3-9-6-6-1-1-3-0" transform="translate(196.8,341.71)">
      <path id="path4547-2-4-0-0-2-7-1-9-0" d="m0 0c.255.909.989 1.626 1.914 1.833l.509 3.809.749-3.857c.893-.255 1.578-.988 1.785-1.897l3.857-.541-3.888-.702c-.256-.877-.957-1.562-1.85-1.785l-.653-3.921-.668 3.953c-.878.255-1.546.957-1.771 1.849l-3.729.606z" style="fill:#ffffff"/>
     </g>
     <g id="g4549-2-0-0-3-6-6-8-6-1" transform="translate(225.74,203.23)">
      <path id="path4551-2-3-9-0-7-1-2-4-2" d="m0 0c-9.706 12.543-21.23 25.597-32.085 41.743l-3.728-.907c.397-.623.797-1.26 1.195-1.882 10.089-15.603 20.13-28.705 30.506-41.218 0 0 .095-.159.24-.382z" style="fill:#ffffff"/>
     </g>
     <g id="g4553-1-2-7-0-8-9-6-6-8" transform="translate(226.16,194.13)">
      <path id="path4555-6-8-9-9-3-9-6-7-7" d="m0 0c6.536-9.339 18.506-24.401 24.483-19.046 6.439 5.753-8.305 11.794-19.557 22.331z" style="fill:#ffffff"/>
     </g>
     <g id="g4557-6-5-2-9-6-3-1-4-2" transform="translate(248.6,218.39)">
      <path id="path4559-7-1-3-6-2-5-1-6-8" d="m0 0h-34.093l7.619 7.634-2.71 7.013h-22.872l-2.343-8.016 5.452-6.631h-21.63l7.62 7.634 14.663 50.828-6.615 6.647h31.831l22.823-57.475 4.718-4.733zm-33.233 24.705-9.212 23.334-6.759-23.334z" style="fill:#ffffff"/>
     </g>
     <g id="g4561-0-3-7-7-6-4-1-2-6" transform="translate(344.17,281.27)">
      <path id="path4563-7-3-7-8-5-8-0-9-0" d="m0 0-2.614 2.231h5.849zm17.278 2.231h13.148l22.825-57.475 7.603-7.634h-41.441l7.603 7.634-2.694 7.013h-22.871l-2.36-8.016 5.467-6.631h-21.629l7.62 7.634 13.994 48.533zm2.995-40.404-9.212 23.334-6.757-23.334z" style="fill:#ffffff"/>
     </g>
     <g id="g4565-6-7-0-5-9-1-2-9-5" transform="translate(150.51,242.95)">
      <path id="path4567-2-1-4-8-1-2-3-6-9" d="m0 0v33.901l-6.614 6.646h22.01l-6.598-6.646v-50.829l7.603-7.634h-28.93l-24.912 42.158v-34.524l6.408-7.634h-23.016l7.604 7.634v50.829l-6.6 6.646h28.817z" style="fill:#ffffff"/>
     </g>
     <g id="g4569-8-1-5-3-7-5-4-7-3" transform="translate(270.15,232.45)">
      <path id="path4571-5-9-2-4-3-4-4-87-4" d="m0 0c-1.164.893-2.231 1.881-3.204 3.028l.319-4.924z" style="fill:#ffffff"/>
     </g>
     <g id="g4573-6-4-2-3-9-7-1-5-8" transform="translate(294.61,238.63)">
      <path id="path4575-8-7-6-6-7-8-4-2-0" d="m0 0c4.59-1.785 7.889-3.602 7.81-6.789-.096-3.555-5.993-6.106-10.584-5.961-2.389.078-7.841.43-13.42 2.31l-10.567-6.806.446-7.219 7.587 5.562c9.229-3.252 20.417-4.622 30.761-1.26 10.281 3.364 21.103 11.954 15.094 27.001-1.148 2.901-3.235 5.307-5.529 7.221z" style="fill:#ffffff"/>
     </g>
     <g id="g4577-4-2-3-2-2-7-0-6-9" transform="translate(308.51,257.38)">
      <path id="path4579-3-7-0-3-9-4-2-7-4" d="m0 0c-.239.095-.478.207-.701.303-3.889 1.578-15.732 6.248-19.046 7.969-3.858 2.008-3.428 8.4 5.865 9.707 8.431 1.163 20.098-5.579 22.601-8.559l-.685 20.273-6.822-4.717c-9.612 3.362-20.8 3.236-28.643-.479-7.315-3.458-15.189-10.759-14.232-21.134.956-10.36 9.005-14.377 16.257-17.66.669-.318 1.403-.622 2.089-.893l11.698 7.571z" style="fill:#ffffff"/>
     </g>
    </g>
    <path id="path4633-3-4-4-1-1-4-0-4-8" d="m330.44 301.76-.0801 1.4004c32.04-30.526 78.555-45.767 87.242-73.405-14.424 28.425-57.956 42.197-87.162 72.005" style="fill:url(#linearGradient11587-4-0)"/>
    <path id="path4645-3-4-1-9-2-4-5-7-5" d="m350.22 265.36c-.33911-.5872-.68188-1.189-1.0286-1.8052-7.7865-14.009-6.6632-28.304 7.4293-22.076 11.959 5.2885 23.381 20.117 27.977 30.647 2.1299 4.8798 7.8376 24.031-10.544 16.273l-.0364-.113c17.36 7.1483 14.359-10.967 5.0697-24.852-5.2592-7.8593-12.116-14.402-16.442-17.564-14.399-10.514-23.177-4.0846-13.071 16.544.4597.9336.93358 1.8235 1.4223 2.677z" style="fill:#ffffff;stroke-width:.67111;stroke:#ffffff"/>
    <rect id="rect15780-6-7-1-5-5-1-4" x="319.18" y="217.59" width="98.424" height="98.424" style="opacity:0;paint-order:fill markers stroke;stroke-width:1.5758"/>
    <g id="g4661-7-9-5-1-7-4-5-1-3" transform="matrix(.22882 0 0 -.22882 308.67 324.33)">
     <g id="g4659-9-0-7-2-5-3-4-8-2" clip-path="url(#clipPath4653-0-1-3-3-5-0-0-6-3-9-61-4-1)" style="opacity:.7">
      <g id="g4657-4-9-0-1-2-5-9-0-6" transform="translate(344.29,291.88)">
       <path id="path4655-1-0-1-1-6-0-8-6-1" d="m0 0c54.4 24.896 102.31 61.396 131.78 121.42-28.498-40.898-78.036-72.185-135.41-97.672-9.435-4.175-19.095-8.208-28.898-12.097-91.359-36.277-202.26-63.212-265.83-104.96l4.576-1.608c69.7 42.428 192.92 48.755 293.78 94.914" style="fill:#ffffff"/>
      </g>
     </g>
    </g>
   </g>
  </g>
 </g>
</svg>
